<mxfile host="app.diagrams.net" agent="Mozilla/5.0 (Macintosh; Intel Mac OS X 10_15_7) AppleWebKit/605.1.15 (KHTML, like Gecko) Version/17.3 Safari/605.1.15" version="24.9.3">
  <diagram name="Page-1" id="vlLuBXJ6Yb6W7yMzVsAo">
    <mxGraphModel dx="1440" dy="960" grid="1" gridSize="10" guides="1" tooltips="1" connect="1" arrows="1" fold="1" page="1" pageScale="1" pageWidth="850" pageHeight="1100" math="0" shadow="0">
      <root>
        <mxCell id="0" />
        <mxCell id="1" parent="0" />
        <mxCell id="nI2ELQmIYTWhM9eA-zW3-18" style="edgeStyle=orthogonalEdgeStyle;rounded=0;orthogonalLoop=1;jettySize=auto;html=1;" edge="1" parent="1" source="nI2ELQmIYTWhM9eA-zW3-2" target="nI2ELQmIYTWhM9eA-zW3-5">
          <mxGeometry relative="1" as="geometry" />
        </mxCell>
        <mxCell id="nI2ELQmIYTWhM9eA-zW3-2" value="Stock exchange" style="rounded=0;whiteSpace=wrap;html=1;fillColor=#f5f5f5;fontColor=#333333;strokeColor=#666666;opacity=50;fontSize=24;" vertex="1" parent="1">
          <mxGeometry x="40" y="200" width="160" height="80" as="geometry" />
        </mxCell>
        <mxCell id="nI2ELQmIYTWhM9eA-zW3-19" style="edgeStyle=orthogonalEdgeStyle;rounded=0;orthogonalLoop=1;jettySize=auto;html=1;" edge="1" parent="1" source="nI2ELQmIYTWhM9eA-zW3-3" target="nI2ELQmIYTWhM9eA-zW3-6">
          <mxGeometry relative="1" as="geometry" />
        </mxCell>
        <mxCell id="nI2ELQmIYTWhM9eA-zW3-3" value="Stock exchange" style="rounded=0;whiteSpace=wrap;html=1;fillColor=#f5f5f5;fontColor=#333333;strokeColor=#666666;opacity=50;fontSize=24;" vertex="1" parent="1">
          <mxGeometry x="40" y="320" width="160" height="80" as="geometry" />
        </mxCell>
        <mxCell id="nI2ELQmIYTWhM9eA-zW3-20" style="edgeStyle=orthogonalEdgeStyle;rounded=0;orthogonalLoop=1;jettySize=auto;html=1;" edge="1" parent="1" source="nI2ELQmIYTWhM9eA-zW3-4" target="nI2ELQmIYTWhM9eA-zW3-7">
          <mxGeometry relative="1" as="geometry" />
        </mxCell>
        <mxCell id="nI2ELQmIYTWhM9eA-zW3-4" value="Stock exchange" style="rounded=0;whiteSpace=wrap;html=1;fillColor=#f5f5f5;fontColor=#333333;strokeColor=#666666;opacity=50;fontSize=24;" vertex="1" parent="1">
          <mxGeometry x="40" y="480" width="160" height="80" as="geometry" />
        </mxCell>
        <mxCell id="nI2ELQmIYTWhM9eA-zW3-5" value="Exchange gateway" style="rounded=0;whiteSpace=wrap;html=1;fillColor=#dae8fc;strokeColor=#6c8ebf;fontSize=24;" vertex="1" parent="1">
          <mxGeometry x="280" y="200" width="160" height="80" as="geometry" />
        </mxCell>
        <mxCell id="nI2ELQmIYTWhM9eA-zW3-6" value="Exchange gateway" style="rounded=0;whiteSpace=wrap;html=1;fillColor=#dae8fc;strokeColor=#6c8ebf;fontSize=24;" vertex="1" parent="1">
          <mxGeometry x="280" y="320" width="160" height="80" as="geometry" />
        </mxCell>
        <mxCell id="nI2ELQmIYTWhM9eA-zW3-21" style="rounded=0;orthogonalLoop=1;jettySize=auto;html=1;entryX=0;entryY=0.75;entryDx=0;entryDy=0;exitX=1;exitY=0.5;exitDx=0;exitDy=0;" edge="1" parent="1" source="nI2ELQmIYTWhM9eA-zW3-7" target="nI2ELQmIYTWhM9eA-zW3-8">
          <mxGeometry relative="1" as="geometry" />
        </mxCell>
        <mxCell id="nI2ELQmIYTWhM9eA-zW3-7" value="Exchange gateway" style="rounded=0;whiteSpace=wrap;html=1;fillColor=#dae8fc;strokeColor=#6c8ebf;fontSize=24;" vertex="1" parent="1">
          <mxGeometry x="280" y="480" width="160" height="80" as="geometry" />
        </mxCell>
        <mxCell id="nI2ELQmIYTWhM9eA-zW3-8" value="pub/sub Broker" style="rounded=0;whiteSpace=wrap;html=1;fillColor=#f8cecc;strokeColor=#b85450;fontSize=24;" vertex="1" parent="1">
          <mxGeometry x="520" y="320" width="160" height="80" as="geometry" />
        </mxCell>
        <mxCell id="nI2ELQmIYTWhM9eA-zW3-9" value="Worker" style="rounded=0;whiteSpace=wrap;html=1;fillColor=#dae8fc;strokeColor=#6c8ebf;fontSize=24;" vertex="1" parent="1">
          <mxGeometry x="760" y="200" width="170" height="80" as="geometry" />
        </mxCell>
        <mxCell id="nI2ELQmIYTWhM9eA-zW3-10" value="Worker" style="rounded=0;whiteSpace=wrap;html=1;fillColor=#dae8fc;strokeColor=#6c8ebf;fontSize=24;" vertex="1" parent="1">
          <mxGeometry x="760" y="320" width="170" height="80" as="geometry" />
        </mxCell>
        <mxCell id="nI2ELQmIYTWhM9eA-zW3-11" value="Worker" style="rounded=0;whiteSpace=wrap;html=1;fillColor=#dae8fc;strokeColor=#6c8ebf;fontSize=24;" vertex="1" parent="1">
          <mxGeometry x="760" y="480" width="170" height="80" as="geometry" />
        </mxCell>
        <mxCell id="nI2ELQmIYTWhM9eA-zW3-13" value="Database" style="rounded=0;whiteSpace=wrap;html=1;fillColor=#f8cecc;strokeColor=#b85450;fontSize=24;" vertex="1" parent="1">
          <mxGeometry x="1000" y="320" width="170" height="80" as="geometry" />
        </mxCell>
        <mxCell id="nI2ELQmIYTWhM9eA-zW3-14" value="Dashboard" style="rounded=0;whiteSpace=wrap;html=1;fillColor=#e1d5e7;strokeColor=#9673a6;fontSize=24;" vertex="1" parent="1">
          <mxGeometry x="1000" y="590" width="170" height="80" as="geometry" />
        </mxCell>
        <mxCell id="nI2ELQmIYTWhM9eA-zW3-15" value="" style="endArrow=none;dashed=1;html=1;dashPattern=1 3;strokeWidth=2;rounded=0;" edge="1" parent="1">
          <mxGeometry width="50" height="50" relative="1" as="geometry">
            <mxPoint x="360" y="470" as="sourcePoint" />
            <mxPoint x="360" y="410" as="targetPoint" />
          </mxGeometry>
        </mxCell>
        <mxCell id="nI2ELQmIYTWhM9eA-zW3-16" value="" style="endArrow=none;dashed=1;html=1;dashPattern=1 3;strokeWidth=2;rounded=0;opacity=70;" edge="1" parent="1">
          <mxGeometry width="50" height="50" relative="1" as="geometry">
            <mxPoint x="119.58000000000001" y="470" as="sourcePoint" />
            <mxPoint x="119.58000000000001" y="410" as="targetPoint" />
          </mxGeometry>
        </mxCell>
        <mxCell id="nI2ELQmIYTWhM9eA-zW3-17" value="" style="endArrow=none;dashed=1;html=1;dashPattern=1 3;strokeWidth=2;rounded=0;" edge="1" parent="1">
          <mxGeometry width="50" height="50" relative="1" as="geometry">
            <mxPoint x="844.66" y="470" as="sourcePoint" />
            <mxPoint x="844.66" y="410" as="targetPoint" />
          </mxGeometry>
        </mxCell>
        <mxCell id="nI2ELQmIYTWhM9eA-zW3-22" style="rounded=0;orthogonalLoop=1;jettySize=auto;html=1;entryX=0;entryY=0.5;entryDx=0;entryDy=0;exitX=1;exitY=0.5;exitDx=0;exitDy=0;" edge="1" parent="1" source="nI2ELQmIYTWhM9eA-zW3-6" target="nI2ELQmIYTWhM9eA-zW3-8">
          <mxGeometry relative="1" as="geometry">
            <mxPoint x="450" y="530" as="sourcePoint" />
            <mxPoint x="530" y="390" as="targetPoint" />
          </mxGeometry>
        </mxCell>
        <mxCell id="nI2ELQmIYTWhM9eA-zW3-23" style="rounded=0;orthogonalLoop=1;jettySize=auto;html=1;entryX=0;entryY=0.25;entryDx=0;entryDy=0;exitX=1;exitY=0.5;exitDx=0;exitDy=0;" edge="1" parent="1" source="nI2ELQmIYTWhM9eA-zW3-5" target="nI2ELQmIYTWhM9eA-zW3-8">
          <mxGeometry relative="1" as="geometry">
            <mxPoint x="460" y="540" as="sourcePoint" />
            <mxPoint x="540" y="400" as="targetPoint" />
          </mxGeometry>
        </mxCell>
        <mxCell id="nI2ELQmIYTWhM9eA-zW3-24" style="rounded=0;orthogonalLoop=1;jettySize=auto;html=1;entryX=0;entryY=0.5;entryDx=0;entryDy=0;exitX=1;exitY=0.25;exitDx=0;exitDy=0;" edge="1" parent="1" source="nI2ELQmIYTWhM9eA-zW3-8" target="nI2ELQmIYTWhM9eA-zW3-9">
          <mxGeometry relative="1" as="geometry">
            <mxPoint x="630" y="470" as="sourcePoint" />
            <mxPoint x="710" y="570" as="targetPoint" />
          </mxGeometry>
        </mxCell>
        <mxCell id="nI2ELQmIYTWhM9eA-zW3-25" style="rounded=0;orthogonalLoop=1;jettySize=auto;html=1;entryX=0;entryY=0.5;entryDx=0;entryDy=0;exitX=1;exitY=0.5;exitDx=0;exitDy=0;" edge="1" parent="1" source="nI2ELQmIYTWhM9eA-zW3-8" target="nI2ELQmIYTWhM9eA-zW3-10">
          <mxGeometry relative="1" as="geometry">
            <mxPoint x="680" y="580" as="sourcePoint" />
            <mxPoint x="760" y="480" as="targetPoint" />
          </mxGeometry>
        </mxCell>
        <mxCell id="nI2ELQmIYTWhM9eA-zW3-26" style="rounded=0;orthogonalLoop=1;jettySize=auto;html=1;entryX=0;entryY=0.5;entryDx=0;entryDy=0;exitX=1;exitY=0.75;exitDx=0;exitDy=0;" edge="1" parent="1" source="nI2ELQmIYTWhM9eA-zW3-8" target="nI2ELQmIYTWhM9eA-zW3-11">
          <mxGeometry relative="1" as="geometry">
            <mxPoint x="690" y="370" as="sourcePoint" />
            <mxPoint x="770" y="370" as="targetPoint" />
          </mxGeometry>
        </mxCell>
        <mxCell id="nI2ELQmIYTWhM9eA-zW3-27" style="rounded=0;orthogonalLoop=1;jettySize=auto;html=1;entryX=0;entryY=0.25;entryDx=0;entryDy=0;exitX=1;exitY=0.5;exitDx=0;exitDy=0;" edge="1" parent="1" source="nI2ELQmIYTWhM9eA-zW3-9" target="nI2ELQmIYTWhM9eA-zW3-13">
          <mxGeometry relative="1" as="geometry">
            <mxPoint x="1040" y="320" as="sourcePoint" />
            <mxPoint x="1120" y="220" as="targetPoint" />
          </mxGeometry>
        </mxCell>
        <mxCell id="nI2ELQmIYTWhM9eA-zW3-28" style="rounded=0;orthogonalLoop=1;jettySize=auto;html=1;entryX=0;entryY=0.5;entryDx=0;entryDy=0;exitX=1;exitY=0.5;exitDx=0;exitDy=0;" edge="1" parent="1" source="nI2ELQmIYTWhM9eA-zW3-10" target="nI2ELQmIYTWhM9eA-zW3-13">
          <mxGeometry relative="1" as="geometry">
            <mxPoint x="940" y="250" as="sourcePoint" />
            <mxPoint x="1010" y="350" as="targetPoint" />
          </mxGeometry>
        </mxCell>
        <mxCell id="nI2ELQmIYTWhM9eA-zW3-29" style="rounded=0;orthogonalLoop=1;jettySize=auto;html=1;entryX=0;entryY=0.75;entryDx=0;entryDy=0;exitX=1;exitY=0.5;exitDx=0;exitDy=0;" edge="1" parent="1" source="nI2ELQmIYTWhM9eA-zW3-11" target="nI2ELQmIYTWhM9eA-zW3-13">
          <mxGeometry relative="1" as="geometry">
            <mxPoint x="990" y="510" as="sourcePoint" />
            <mxPoint x="1060" y="610" as="targetPoint" />
          </mxGeometry>
        </mxCell>
        <mxCell id="nI2ELQmIYTWhM9eA-zW3-31" style="rounded=0;orthogonalLoop=1;jettySize=auto;html=1;entryX=0.5;entryY=0;entryDx=0;entryDy=0;exitX=0.5;exitY=1;exitDx=0;exitDy=0;" edge="1" parent="1" source="nI2ELQmIYTWhM9eA-zW3-13" target="nI2ELQmIYTWhM9eA-zW3-14">
          <mxGeometry relative="1" as="geometry">
            <mxPoint x="940" y="530" as="sourcePoint" />
            <mxPoint x="1010" y="390" as="targetPoint" />
          </mxGeometry>
        </mxCell>
      </root>
    </mxGraphModel>
  </diagram>
</mxfile>
